<mxfile host="Electron" agent="Mozilla/5.0 (Windows NT 10.0; Win64; x64) AppleWebKit/537.36 (KHTML, like Gecko) draw.io/26.0.16 Chrome/132.0.6834.196 Electron/34.2.0 Safari/537.36" version="26.0.16">
  <diagram id="C5RBs43oDa-KdzZeNtuy" name="SpringBoot启动流程">
    <mxGraphModel dx="829" dy="491" grid="1" gridSize="10" guides="1" tooltips="1" connect="1" arrows="1" fold="1" page="1" pageScale="1" pageWidth="827" pageHeight="1169" math="0" shadow="0">
      <root>
        <mxCell id="WIyWlLk6GJQsqaUBKTNV-0" />
        <mxCell id="WIyWlLk6GJQsqaUBKTNV-1" parent="WIyWlLk6GJQsqaUBKTNV-0" />
        <mxCell id="3LTsM8QaxBrkT4zqR3_h-1" value="" style="edgeStyle=orthogonalEdgeStyle;rounded=0;orthogonalLoop=1;jettySize=auto;html=1;" parent="WIyWlLk6GJQsqaUBKTNV-1" source="WIyWlLk6GJQsqaUBKTNV-3" edge="1">
          <mxGeometry relative="1" as="geometry">
            <mxPoint x="260" y="200" as="targetPoint" />
          </mxGeometry>
        </mxCell>
        <mxCell id="WIyWlLk6GJQsqaUBKTNV-3" value="SpringApplication#run()" style="rounded=1;whiteSpace=wrap;html=1;fontSize=12;glass=0;strokeWidth=1;shadow=0;" parent="WIyWlLk6GJQsqaUBKTNV-1" vertex="1">
          <mxGeometry x="160" y="40" width="200" height="80" as="geometry" />
        </mxCell>
        <mxCell id="h2vUWbzyig7agpY1RAOJ-3" value="&lt;div&gt;获取当前容器的类型（None、Servlet、Reactive）&lt;/div&gt;WebApplicationType#deduceFromClasspath" style="rounded=1;whiteSpace=wrap;html=1;" vertex="1" parent="WIyWlLk6GJQsqaUBKTNV-1">
          <mxGeometry x="120" y="200" width="280" height="80" as="geometry" />
        </mxCell>
        <mxCell id="h2vUWbzyig7agpY1RAOJ-5" value="" style="edgeStyle=orthogonalEdgeStyle;rounded=0;orthogonalLoop=1;jettySize=auto;html=1;" edge="1" parent="WIyWlLk6GJQsqaUBKTNV-1" source="h2vUWbzyig7agpY1RAOJ-3" target="h2vUWbzyig7agpY1RAOJ-4">
          <mxGeometry relative="1" as="geometry" />
        </mxCell>
        <mxCell id="h2vUWbzyig7agpY1RAOJ-4" value="&lt;div&gt;获取当前容器的类型（None、Servlet、Reactive）&lt;/div&gt;WebApplicationType#deduceFromClasspath" style="rounded=1;whiteSpace=wrap;html=1;" vertex="1" parent="WIyWlLk6GJQsqaUBKTNV-1">
          <mxGeometry x="120" y="360" width="280" height="80" as="geometry" />
        </mxCell>
        <mxCell id="h2vUWbzyig7agpY1RAOJ-7" value="" style="edgeStyle=orthogonalEdgeStyle;rounded=0;orthogonalLoop=1;jettySize=auto;html=1;" edge="1" parent="WIyWlLk6GJQsqaUBKTNV-1" source="h2vUWbzyig7agpY1RAOJ-4" target="h2vUWbzyig7agpY1RAOJ-6">
          <mxGeometry relative="1" as="geometry" />
        </mxCell>
        <mxCell id="h2vUWbzyig7agpY1RAOJ-9" value="" style="edgeStyle=orthogonalEdgeStyle;rounded=0;orthogonalLoop=1;jettySize=auto;html=1;" edge="1" parent="WIyWlLk6GJQsqaUBKTNV-1" source="h2vUWbzyig7agpY1RAOJ-6" target="h2vUWbzyig7agpY1RAOJ-8">
          <mxGeometry relative="1" as="geometry" />
        </mxCell>
        <mxCell id="h2vUWbzyig7agpY1RAOJ-6" value="&lt;div&gt;从META-INF/spring.factories获取引导注册器初始化器&lt;/div&gt;SpringApplication.getSpringFactoriesInstances(&lt;div&gt;BootstrapRegistryInitializer.class)&lt;/div&gt;" style="rounded=1;whiteSpace=wrap;html=1;" vertex="1" parent="WIyWlLk6GJQsqaUBKTNV-1">
          <mxGeometry x="120" y="520" width="280" height="160" as="geometry" />
        </mxCell>
        <mxCell id="h2vUWbzyig7agpY1RAOJ-8" value="&lt;div&gt;从META-INF/spring.factories获取引导注册器初始化器&lt;/div&gt;SpringApplication.getSpringFactoriesInstances(&lt;div&gt;BootstrapRegistryInitializer.class)&lt;/div&gt;" style="rounded=1;whiteSpace=wrap;html=1;" vertex="1" parent="WIyWlLk6GJQsqaUBKTNV-1">
          <mxGeometry x="120" y="760" width="280" height="160" as="geometry" />
        </mxCell>
      </root>
    </mxGraphModel>
  </diagram>
</mxfile>
